<svg xmlns="http://www.w3.org/2000/svg" version="1.1" xmlns:xlink="http://www.w3.org/1999/xlink" xmlns:svgjs="http://svgjs.dev/svgjs" width="2000" height="1252" viewBox="0 0 2000 1252"><g transform="matrix(1,0,0,1,-1.2121212121212466,-2.0191931587669387)"><svg viewBox="0 0 396 248" data-background-color="#ffffff" preserveAspectRatio="xMidYMid meet" height="1252" width="2000" xmlns="http://www.w3.org/2000/svg" xmlns:xlink="http://www.w3.org/1999/xlink"><g id="tight-bounds" transform="matrix(1,0,0,1,0.2400000000000091,0.4000000000000057)"><svg viewBox="0 0 395.52 247.2" height="247.2" width="395.52"><rect width="395.52" height="247.20003202605895" fill="url(#39a1ee5a-c372-4ab4-9fb9-26c190a84928)" mask="url(#59a856e9-7a3a-44a5-94af-b98aec2bd83c)" data-fill-palette-color="tertiary"></rect><g><svg></svg></g><g><svg viewBox="0 0 395.52 247.2" height="247.2" width="395.52"><mask id="fa52132e-27ca-4553-9273-2b38ac36ab9e"><rect width="395.52" height="247.2" fill="white"></rect><g transform="matrix(1,0,0,1,65.72479758773338,37.08000000000001)" id="clone"><svg viewBox="0 0 264.0704048245332 173.03999999999996" height="173.03999999999996" width="264.0704048245332"><g><svg viewBox="0 0 264.0704048245332 173.03999999999996" height="173.03999999999996" width="264.0704048245332"><g><svg viewBox="0 0 264.0704048245332 173.03999999999996" height="173.03999999999996" width="264.0704048245332"><g><svg viewBox="0 0 264.0704048245332 173.03999999999996" height="173.03999999999996" width="264.0704048245332"><g id="SvgjsG1055"><svg viewBox="0 0 264.0704048245332 173.03999999999996" height="173.03999999999996" width="264.0704048245332" id="SvgjsSvg1054"><g><svg viewBox="0 0 264.0704048245332 173.03999999999996" height="173.03999999999996" width="264.0704048245332"><g transform="matrix(1,0,0,1,0,0)"><svg width="264.0704048245332" viewBox="-2.190909090909091 -39.5099989184 65.87305188742909 43.5099989184" height="173.03999999999996" data-palette-color="#ffffff"><path d="M14.05-2.1L14.05-2.1Q15.85-2.4 17.53-3.2 19.2-4 20.55-5.25L20.55-5.25Q20.65-5.3 20.95-5.6 21.25-5.9 21.35-5.8L21.35-5.8Q21.45-5.7 21.3-5.5 21.15-5.3 21.05-5.15L21.05-5.15Q20.05-3.7 18.43-2.78 16.8-1.85 15.05-1.3L15.05-1.3Q13.6-0.9 11.95-1.03 10.3-1.15 8.85-1.85L8.85-1.85Q8.4-2.05 8.3-2.18 8.2-2.3 8.3-2.35 8.4-2.4 8.63-2.4 8.85-2.4 9.05-2.35L9.05-2.35Q9.6-2.25 10.33-2.18 11.05-2.1 11.78-2.08 12.5-2.05 13.1-2.05 13.7-2.05 14.05-2.1ZM7.35-16.8L7.35-16.8Q7.1-15.05 7.1-13.38 7.1-11.7 7.33-10.23 7.55-8.75 8.03-7.6 8.5-6.45 9.2-5.7L9.2-5.7Q10-4.9 11.18-4.48 12.35-4.05 13.73-4.05 15.1-4.05 16.63-4.45 18.15-4.85 19.65-5.7L19.65-5.7Q19.95-5.9 20.05-5.8L20.05-5.8Q20.15-5.7 19.98-5.58 19.8-5.45 19.65-5.35L19.65-5.35Q18.35-4.35 16.9-3.75 15.45-3.15 13.98-3 12.5-2.85 11.13-3.18 9.75-3.5 8.65-4.4L8.65-4.4Q7.6-5.3 6.95-6.58 6.3-7.85 5.98-9.38 5.65-10.9 5.6-12.55 5.55-14.2 5.7-15.8L5.7-15.8Q5.9-18.35 6.7-20.95 7.5-23.55 8.83-25.75 10.15-27.95 12-29.6 13.85-31.25 16.15-31.9L16.15-31.9Q17.3-32.2 18.5-32.15 19.7-32.1 20.73-31.7 21.75-31.3 22.5-30.53 23.25-29.75 23.5-28.65L23.5-28.65Q23.75-27.45 23.3-26.33 22.85-25.2 22.05-24.38 21.25-23.55 20.25-23.2 19.25-22.85 18.35-23.2L18.35-23.2Q18.3-23.2 18.28-23.35 18.25-23.5 18.45-23.45L18.45-23.45Q19.05-23.35 19.83-23.73 20.6-24.1 21.23-24.75 21.85-25.4 22.23-26.3 22.6-27.2 22.45-28.15L22.45-28.15Q22.3-28.85 21.83-29.38 21.35-29.9 20.6-30.23 19.85-30.55 18.93-30.65 18-30.75 17-30.55L17-30.55Q15.1-30.2 13.48-28.88 11.85-27.55 10.6-25.65 9.35-23.75 8.5-21.43 7.65-19.1 7.35-16.8ZM11.3-0.25L11.3-0.25Q11.85-0.2 12.43-0.2 13-0.2 13-0.05L13-0.05Q13 0 12.8 0.03 12.6 0.05 12.38 0.05 12.15 0.05 11.9 0.05 11.65 0.05 11.6 0.05L11.6 0.05Q10.05 0.05 8.55-0.4 7.05-0.85 5.78-1.68 4.5-2.5 3.5-3.7 2.5-4.9 2-6.45L2-6.45Q1-9.5 0.85-12.4 0.7-15.3 1.1-18.1L1.1-18.1Q1.3-19.7 1.88-21.73 2.45-23.75 3.43-25.85 4.4-27.95 5.88-30 7.35-32.05 9.4-33.75L9.4-33.75Q11.55-35.55 14.18-36.15 16.8-36.75 19.2-36.35 21.6-35.95 23.45-34.68 25.3-33.4 25.9-31.45L25.9-31.45Q25.95-31.35 26-31.03 26.05-30.7 25.95-30.6L25.95-30.6Q25.9-30.55 25.8-30.85 25.7-31.15 25.6-31.25L25.6-31.25Q23.5-34.1 20.85-34.88 18.2-35.65 15.6-35.02 13-34.4 10.7-32.73 8.4-31.05 7.05-29L7.05-29Q4.7-25.45 3.48-21.45 2.25-17.45 2.35-13.2L2.35-13.2Q2.4-11.25 2.78-9.1 3.15-6.95 4.25-5L4.25-5Q5.35-3 7.28-1.68 9.2-0.35 11.3-0.25ZM4.1-19.05L4.1-19.05Q4.5-21.7 5.38-24.2 6.25-26.7 7.68-28.78 9.1-30.85 11.2-32.35 13.3-33.85 16.15-34.45L16.15-34.45Q17.15-34.65 18.4-34.63 19.65-34.6 20.9-34.18 22.15-33.75 23.23-32.9 24.3-32.05 25-30.55L25-30.55Q25.65-29.1 25.45-27.7 25.25-26.3 24.6-25.18 23.95-24.05 23-23.3 22.05-22.55 21.15-22.45L21.15-22.45Q20.6-22.35 20.55-22.48 20.5-22.6 21.1-22.8L21.1-22.8Q22.05-23.1 23.03-24.33 24-25.55 24.2-27.45L24.2-27.45Q24.3-28.4 23.95-29.33 23.6-30.25 22.95-30.95 22.3-31.65 21.4-32.15 20.5-32.65 19.5-32.8L19.5-32.8Q17.35-33.1 15.55-32.5 13.75-31.9 12.43-30.98 11.1-30.05 10.28-29.15 9.45-28.25 9.25-27.95L9.25-27.95Q7.7-26 6.55-23.73 5.4-21.45 4.65-18.95L4.65-18.95Q4.65-18.9 4.58-18.6 4.5-18.3 4.42-17.98 4.35-17.65 4.25-17.38 4.15-17.1 4.1-17.1L4.1-17.1Q4-17.1 4-17.4 4-17.7 4-18.03 4-18.35 4.05-18.65 4.1-18.95 4.1-19.05ZM27.25 1L27.25 1Q27 1 26.47 0.93 25.95 0.85 25.95 0.45L25.95 0.45Q25.95 0.3 26.4 0.08 26.85-0.15 27.4-0.55 27.95-0.95 28.4-1.63 28.85-2.3 28.85-3.35L28.85-3.35Q28.85-4.65 28.35-5.3L28.35-5.3Q28.25-5.45 28.1-5.63 27.95-5.8 28-5.85L28-5.85Q28.1-5.85 28.22-5.78 28.35-5.7 28.4-5.65L28.4-5.65Q29.4-5.1 29.92-4.23 30.45-3.35 30.45-2.55L30.45-2.55Q30.45-0.95 29.7 0.03 28.95 1 27.25 1ZM25.4-0.95L25.4-0.95Q24.8-0.7 24.8-1.25L24.8-1.25Q24.8-1.65 25.1-2.02 25.4-2.4 25.67-2.85 25.95-3.3 26.05-3.88 26.15-4.45 25.75-5.3L25.75-5.3Q25.65-5.55 25.4-5.85 25.15-6.15 25.25-6.2L25.25-6.2Q25.35-6.25 25.67-6.13 26-6 26.1-5.95L26.1-5.95Q26.95-5.55 27.37-4.75 27.8-3.95 27.8-3.35L27.8-3.35Q27.8-2.4 27.02-1.78 26.25-1.15 25.4-0.95ZM23.95-3.65L23.95-3.65Q23.95-3.9 24.1-4.23 24.25-4.55 24.6-4.55L24.6-4.55Q24.85-4.55 25-4.23 25.15-3.9 25.15-3.65L25.15-3.65Q25.15-3.45 25-3.13 24.85-2.8 24.6-2.8L24.6-2.8Q24.25-2.8 24.1-3.1 23.95-3.4 23.95-3.65ZM43.7-7.65L43.7-7.65Q45.6-9.45 47.12-11.25 48.65-13.05 49.97-15.28 51.3-17.5 52.42-20.38 53.55-23.25 54.65-27.15L54.65-27.15Q55.25-29.4 55.67-31.5 56.1-33.6 56-35.6L56-35.6Q56-36 56.05-36L56.05-36Q56.15-36 56.2-35.85 56.25-35.7 56.3-35.6L56.3-35.6Q57.05-33.25 56.8-30.68 56.55-28.1 55.85-25.43 55.15-22.75 54.22-20 53.3-17.25 52.65-14.5L52.65-14.5Q52.25-12.8 52.05-10.9 51.85-9 51.92-7.13 52-5.25 52.4-3.45 52.8-1.65 53.65-0.1L53.65-0.1Q53.7-0.05 53.7 0.05L53.7 0.05 53.7 0.15Q53.55 0.15 53.5 0.1L53.5 0.1 53.4 0Q51.45-2.1 50.75-5.15L50.75-5.15Q50.05-4.3 49.32-3.5 48.6-2.7 47.3-1.85L47.3-1.85Q45.2-0.45 42.62 0.08 40.05 0.6 37.5-0.6L37.5-0.6Q36-1.35 35.2-2.58 34.4-3.8 34.02-5.23 33.65-6.65 33.57-8.13 33.5-9.6 33.45-10.8L33.45-10.8Q33.35-13.15 33.67-15.35 34-17.55 34.55-19.48 35.1-21.4 35.8-22.95 36.5-24.5 37.15-25.55L37.15-25.55Q37.2-25.65 37.32-25.78 37.45-25.9 37.5-25.9L37.5-25.9Q37.6-25.85 37.52-25.63 37.45-25.4 37.4-25.3L37.4-25.3Q36.65-23.05 36.05-20.7 35.45-18.35 35.15-15.95 34.85-13.55 34.92-11.13 35-8.7 35.6-6.25L35.6-6.25Q35.85-5.25 36.35-4.17 36.85-3.1 38-2.25L38-2.25Q38.65-1.75 39.35-1.55 40.05-1.35 40.7-1.33 41.35-1.3 41.92-1.4 42.5-1.5 43-1.65L43-1.65Q45.25-2.2 46.87-3.65 48.5-5.1 49.65-6.6L49.65-6.6Q50.1-7.1 50.4-7.75L50.4-7.75Q50.35-8.7 50.45-9.95 50.55-11.2 50.7-12.3 50.85-13.4 50.95-14.15 51.05-14.9 51-14.85L51-14.85Q49.85-12.3 48.27-10.38 46.7-8.45 45.55-7.25L45.55-7.25Q44.8-6.45 43.87-5.85 42.95-5.25 42.05-5 41.15-4.75 40.4-5 39.65-5.25 39.3-6.15L39.3-6.15Q38.6-8.2 38.3-10.68 38-13.15 38.25-15.7L38.25-15.7Q38.8-20.8 40.67-25.75 42.55-30.7 45.95-34.8L45.95-34.8Q46.15-35.05 46.32-35.15 46.5-35.25 46.2-34.75L46.2-34.75Q45.1-33.05 44.07-30.85 43.05-28.65 42.22-26.23 41.4-23.8 40.77-21.25 40.15-18.7 39.9-16.3L39.9-16.3Q39.65-13.9 39.7-11.58 39.75-9.25 40.45-7.45L40.45-7.45Q40.7-6.8 41.12-6.63 41.55-6.45 42-6.58 42.45-6.7 42.9-7.03 43.35-7.35 43.7-7.65ZM44.5-3.65L44.5-3.65Q43.95-3.35 43.35-3.05 42.75-2.75 42.12-2.58 41.5-2.4 40.8-2.4 40.1-2.4 39.35-2.65L39.35-2.65Q37.9-3.15 37.27-4.33 36.65-5.5 36.3-6.6L36.3-6.6Q35.5-9 35.57-11.38 35.65-13.75 35.95-16.45L35.95-16.45Q36.15-18.35 36.77-20.63 37.4-22.9 38.35-25.15 39.3-27.4 40.47-29.35 41.65-31.3 42.95-32.55L42.95-32.55Q43.05-32.65 43.32-32.93 43.6-33.2 43.7-33.1L43.7-33.1Q43.75-33.05 43.25-32.25L43.25-32.25Q42.75-31.45 42.05-30.1 41.35-28.75 40.65-27.03 39.95-25.3 39.27-23.33 38.6-21.35 38.15-19.25L38.15-19.25Q37.7-17.2 37.55-15.25 37.4-13.3 37.42-11.68 37.45-10.05 37.57-8.93 37.7-7.8 37.8-7.4L37.8-7.4Q38.05-6.4 38.52-5.33 39-4.25 39.85-3.85L39.85-3.85Q40.7-3.45 41.97-3.6 43.25-3.75 44.25-4.3L44.25-4.3Q44.3-4.35 44.55-4.5 44.8-4.65 45.07-4.83 45.35-5 45.57-5.13 45.8-5.25 45.85-5.2L45.85-5.2Q45.9-5.1 45.8-4.9 45.7-4.7 45.47-4.45 45.25-4.2 44.97-3.98 44.7-3.75 44.5-3.65ZM58.05-14.05L58.05-14.05Q57.45-11.65 56.62-9.15 55.8-6.65 55.2-4.8L55.2-4.8Q55.1-4.55 55-4.3 54.9-4.05 54.8-4.1L54.8-4.1Q54.65-4.15 54.65-4.42 54.65-4.7 54.65-4.95L54.65-4.95Q54.85-8.7 55.77-12.4 56.7-16.1 57.85-19.85L57.85-19.85Q58.55-22.2 59.17-24.63 59.8-27.05 59.9-29.85L59.9-29.85Q59.9-30.2 60-30.2L60-30.2Q60.15-30.2 60.25-29.85L60.25-29.85Q60.8-28.5 60.65-26.38 60.5-24.25 60.02-21.95 59.55-19.65 58.95-17.5 58.35-15.35 58.05-14.05ZM58.6-25L58.6-25Q57.9-22.3 57.1-19.45 56.3-16.6 54.85-14.05L54.85-14.05Q54.75-13.9 54.52-13.53 54.3-13.15 54.15-13.2L54.15-13.2Q54.05-13.2 54.05-13.6 54.05-14 54.1-14.25L54.1-14.25Q54.15-14.85 54.3-15.73 54.45-16.6 54.67-17.53 54.9-18.45 55.12-19.33 55.35-20.2 55.55-20.8L55.55-20.8Q55.65-21.1 55.87-21.98 56.1-22.85 56.35-24.05 56.6-25.25 56.85-26.68 57.1-28.1 57.27-29.5 57.45-30.9 57.5-32.15 57.55-33.4 57.4-34.3L57.4-34.3Q57.3-34.75 57.45-34.75L57.45-34.75Q57.55-34.75 57.65-34.65 57.75-34.55 57.8-34.45L57.8-34.45Q58.4-33.6 58.67-32.4 58.95-31.2 59.02-29.9 59.1-28.6 58.97-27.3 58.85-26 58.6-25ZM54.1-3.4L54.1-3.4Q54.25-2.4 54.42-1.6 54.6-0.8 55.05-0.05L55.05-0.05Q55.1 0 55.12 0.13 55.15 0.25 55.05 0.25L55.05 0.25Q54.8 0.25 54.55 0L54.55 0Q54-0.65 53.65-1.25 53.3-1.85 53-3.35L53-3.35Q52.9-3.95 52.85-4.8 52.8-5.65 52.85-6.45 52.9-7.25 53.02-7.78 53.15-8.3 53.35-8.3L53.35-8.3Q53.4-8.3 53.47-8.03 53.55-7.75 53.62-7.43 53.7-7.1 53.72-6.78 53.75-6.45 53.75-6.35L53.75-6.35Q53.9-4.8 54.1-3.4Z" opacity="1" transform="matrix(1,0,0,1,0,0)" fill="black" class="wordmark-text-0" id="SvgjsPath1053" stroke-width="5" stroke="black" stroke-linejoin="round"></path></svg></g></svg></g></svg></g></svg></g></svg></g></svg></g></svg></g></mask><g mask="url(#fa52132e-27ca-4553-9273-2b38ac36ab9e)"><g><path d="M202.068 232.663v0c8.114-1.352 15.957-3.832 23.53-7.438 7.528-3.606 14.334-8.226 20.42-13.861v0c0.451-0.225 1.352-1.014 2.704-2.366 1.352-1.352 2.254-1.803 2.705-1.353v0c0.451 0.451 0.338 1.127-0.338 2.029-0.676 0.902-1.24 1.69-1.691 2.366v0c-4.508 6.536-10.413 11.878-17.715 16.025-7.347 4.192-14.965 7.528-22.854 10.007v0c-6.536 1.803-13.523 2.412-20.96 1.826-7.438-0.541-14.425-2.389-20.961-5.545v0c-2.028-0.902-3.268-1.645-3.719-2.231-0.451-0.541-0.451-0.924 0-1.15 0.451-0.225 1.195-0.338 2.232-0.338 0.992 0 1.938 0.113 2.839 0.338v0c2.479 0.451 5.364 0.834 8.655 1.15 3.246 0.361 6.514 0.586 9.804 0.676 3.246 0.135 6.221 0.203 8.925 0.203 2.705 0 4.846-0.113 6.424-0.338zM156.766 133.269v0c-1.127 7.888-1.69 15.597-1.69 23.124 0 7.573 0.518 14.672 1.555 21.299 0.992 6.671 2.569 12.599 4.733 17.783 2.119 5.184 4.756 9.466 7.911 12.846v0c3.606 3.606 8.069 6.356 13.387 8.249 5.274 1.938 11.021 2.907 17.242 2.908 6.175 0 12.712-0.902 19.609-2.705 6.852-1.803 13.658-4.62 20.419-8.452v0c1.352-0.902 2.254-1.127 2.705-0.676v0c0.451 0.451 0.293 0.947-0.473 1.488-0.811 0.586-1.555 1.104-2.232 1.555v0c-5.86 4.508-12.058 8.114-18.594 10.818-6.536 2.705-13.117 4.395-19.743 5.071-6.671 0.676-13.095 0.27-19.271-1.217-6.221-1.442-11.81-4.192-16.768-8.249v0c-4.733-4.057-8.565-8.97-11.495-14.74-2.93-5.725-5.116-12.035-6.558-18.932-1.488-6.852-2.344-13.996-2.57-21.434-0.225-7.438 0-14.763 0.676-21.975v0c0.902-11.495 3.155-23.102 6.762-34.821 3.606-11.72 8.407-22.538 14.402-32.455 5.95-9.917 13.095-18.594 21.434-26.032 8.339-7.438 17.693-12.621 28.06-15.552v0c5.184-1.352 10.48-1.916 15.89-1.69 5.409 0.225 10.435 1.24 15.078 3.043 4.598 1.803 8.587 4.44 11.967 7.911 3.381 3.516 5.635 7.753 6.762 12.711v0c1.127 5.409 0.676 10.638-1.352 15.687-2.028 5.094-4.846 9.489-8.452 13.185-3.606 3.741-7.663 6.401-12.171 7.978-4.508 1.578-8.79 1.578-12.847 0v0c-0.225 0-0.383-0.338-0.473-1.014-0.135-0.676 0.248-0.902 1.149-0.676v0c2.705 0.451 5.815-0.18 9.331-1.893 3.471-1.668 6.626-3.967 9.466-6.897 2.795-2.93 5.049-6.423 6.762-10.48 1.668-4.057 2.164-8.226 1.487-12.509v0c-0.676-3.155-2.074-5.928-4.192-8.317-2.164-2.344-4.936-4.26-8.316-5.747-3.381-1.442-7.145-2.389-11.292-2.84-4.192-0.451-8.542-0.225-13.05 0.676v0c-8.565 1.578-16.498 5.342-23.8 11.292-7.347 5.995-13.839 13.275-19.473 21.84-5.635 8.565-10.368 18.076-14.199 28.533-3.832 10.503-6.423 20.938-7.776 31.306zM183.474 245.172v0c2.479 0.225 5.026 0.338 7.64 0.338 2.569 0 3.854 0.338 3.854 1.014v0c0 0.225-0.451 0.406-1.352 0.541-0.902 0.09-1.848 0.135-2.84 0.135-1.037 0-2.119 0-3.245 0-1.127 0-1.803 0-2.029 0v0c-6.987 0-13.861-1.014-20.622-3.043-6.761-2.028-13.005-4.913-18.73-8.654-5.77-3.696-10.909-8.249-15.416-13.659-4.508-5.409-7.888-11.607-10.142-18.594v0c-4.508-13.748-7.1-27.159-7.776-40.231-0.676-13.072-0.113-25.919 1.691-38.54v0c0.902-7.212 2.66-15.394 5.274-24.544 2.569-9.105 6.063-18.391 10.48-27.858 4.372-9.466 9.894-18.819 16.566-28.06 6.626-9.241 14.56-17.693 23.8-25.355v0c9.691-8.114 20.465-13.523 32.32-16.228 11.81-2.705 23.124-3.155 33.943-1.352 10.818 1.803 20.397 5.567 28.736 11.292 8.339 5.77 13.861 13.05 16.566 21.839v0c0.225 0.451 0.451 1.397 0.676 2.84 0.225 1.488 0.113 2.457-0.338 2.907v0c-0.225 0.225-0.563-0.338-1.015-1.69-0.451-1.352-0.902-2.254-1.352-2.705v0c-9.466-12.847-20.172-21.028-32.117-24.544-11.945-3.471-23.778-3.786-35.498-0.946-11.72 2.795-22.764 7.956-33.131 15.483-10.368 7.573-18.594 15.98-24.679 25.221v0c-10.593 16.002-18.639 33.019-24.139 51.049-5.544 18.031-8.091 36.625-7.64 55.782v0c0.225 8.79 1.195 18.031 2.907 27.722 1.668 9.691 4.981 18.932 9.939 27.722v0c4.958 9.015 11.788 16.498 20.488 22.449 8.655 5.995 17.715 9.218 27.181 9.669zM134.791 118.056v0c1.803-11.945 4.688-23.553 8.655-34.822 3.922-11.269 9.105-21.592 15.551-30.968 6.401-9.331 14.334-17.377 23.801-24.138 9.466-6.761 20.623-11.495 33.469-14.199v0c4.508-0.902 9.579-1.307 15.213-1.217 5.635 0.135 11.269 1.149 16.904 3.042 5.635 1.938 10.886 4.823 15.754 8.655 4.823 3.832 8.812 9.128 11.968 15.889v0c2.93 6.536 3.944 12.96 3.043 19.271-0.902 6.311-2.817 11.99-5.747 17.039-2.93 5.094-6.536 9.331-10.819 12.711-4.282 3.381-8.452 5.296-12.509 5.748v0c-2.479 0.451-3.832 0.383-4.056-0.203-0.225-0.541 1.014-1.262 3.718-2.164v0c4.282-1.352 8.632-4.801 13.05-10.345 4.372-5.499 7.009-12.531 7.911-21.096v0c0.451-4.282-0.113-8.519-1.69-12.712-1.578-4.147-3.832-7.798-6.762-10.953-2.93-3.155-6.423-5.86-10.48-8.114-4.057-2.254-8.339-3.719-12.847-4.395v0c-9.691-1.352-18.594-0.676-26.708 2.029-8.114 2.705-15.146 6.13-21.096 10.277-5.995 4.192-10.841 8.317-14.537 12.374-3.741 4.057-6.063 6.761-6.964 8.113v0c-6.987 8.79-13.072 18.301-18.256 28.534-5.184 10.277-9.466 21.051-12.847 32.32v0c0 0.225-0.158 1.014-0.473 2.366-0.361 1.352-0.721 2.75-1.082 4.192-0.316 1.488-0.699 2.84-1.15 4.057-0.451 1.262-0.789 1.893-1.014 1.893v0c-0.451 0-0.676-0.676-0.676-2.028 0-1.352 0-2.772 0-4.26 0-1.442 0.113-2.84 0.338-4.192 0.225-1.352 0.338-2.254 0.338-2.704z" fill="url(#39a1ee5a-c372-4ab4-9fb9-26c190a84928)" fill-rule="nonzero" stroke="none" stroke-width="1" stroke-linecap="butt" stroke-linejoin="miter" stroke-miterlimit="10" stroke-dasharray="" stroke-dashoffset="0" font-family="none" font-weight="none" font-size="none" text-anchor="none" style="mix-blend-mode: normal" data-fill-palette-color="tertiary"></path></g></g><g transform="matrix(1,0,0,1,65.72479758773338,37.08000000000001)"><svg viewBox="0 0 264.0704048245332 173.03999999999996" height="173.03999999999996" width="264.0704048245332"><g><svg viewBox="0 0 264.0704048245332 173.03999999999996" height="173.03999999999996" width="264.0704048245332"><g><svg viewBox="0 0 264.0704048245332 173.03999999999996" height="173.03999999999996" width="264.0704048245332"><g><svg viewBox="0 0 264.0704048245332 173.03999999999996" height="173.03999999999996" width="264.0704048245332"><g id="textblocktransform"><svg viewBox="0 0 264.0704048245332 173.03999999999996" height="173.03999999999996" width="264.0704048245332" id="textblock"><g><svg viewBox="0 0 264.0704048245332 173.03999999999996" height="173.03999999999996" width="264.0704048245332"><g transform="matrix(1,0,0,1,0,0)"><svg width="264.0704048245332" viewBox="-2.190909090909091 -39.5099989184 65.87305188742909 43.5099989184" height="173.03999999999996" data-palette-color="#ffffff"><path d="M14.05-2.1L14.05-2.1Q15.85-2.4 17.53-3.2 19.2-4 20.55-5.25L20.55-5.25Q20.65-5.3 20.95-5.6 21.25-5.9 21.35-5.8L21.35-5.8Q21.45-5.7 21.3-5.5 21.15-5.3 21.05-5.15L21.05-5.15Q20.05-3.7 18.43-2.78 16.8-1.85 15.05-1.3L15.05-1.3Q13.6-0.9 11.95-1.03 10.3-1.15 8.85-1.85L8.85-1.85Q8.4-2.05 8.3-2.18 8.2-2.3 8.3-2.35 8.4-2.4 8.63-2.4 8.85-2.4 9.05-2.35L9.05-2.35Q9.6-2.25 10.33-2.18 11.05-2.1 11.78-2.08 12.5-2.05 13.1-2.05 13.7-2.05 14.05-2.1ZM7.35-16.8L7.35-16.8Q7.1-15.05 7.1-13.38 7.1-11.7 7.33-10.23 7.55-8.75 8.03-7.6 8.5-6.45 9.2-5.7L9.2-5.7Q10-4.9 11.18-4.48 12.35-4.05 13.73-4.05 15.1-4.05 16.63-4.45 18.15-4.85 19.65-5.7L19.65-5.7Q19.95-5.9 20.05-5.8L20.05-5.8Q20.15-5.7 19.98-5.58 19.8-5.45 19.65-5.35L19.65-5.35Q18.35-4.35 16.9-3.75 15.45-3.15 13.98-3 12.5-2.85 11.13-3.18 9.75-3.5 8.65-4.4L8.65-4.4Q7.6-5.3 6.95-6.58 6.3-7.85 5.98-9.38 5.65-10.9 5.6-12.55 5.55-14.2 5.7-15.8L5.7-15.8Q5.9-18.35 6.7-20.95 7.5-23.55 8.83-25.75 10.15-27.95 12-29.6 13.85-31.25 16.15-31.9L16.15-31.9Q17.3-32.2 18.5-32.15 19.7-32.1 20.73-31.7 21.75-31.3 22.5-30.53 23.25-29.75 23.5-28.65L23.5-28.65Q23.75-27.45 23.3-26.33 22.85-25.2 22.05-24.38 21.25-23.55 20.25-23.2 19.25-22.85 18.35-23.2L18.35-23.2Q18.3-23.2 18.28-23.35 18.25-23.5 18.45-23.45L18.45-23.45Q19.05-23.35 19.83-23.73 20.6-24.1 21.23-24.75 21.85-25.4 22.23-26.3 22.6-27.2 22.45-28.15L22.45-28.15Q22.3-28.85 21.83-29.38 21.35-29.9 20.6-30.23 19.85-30.55 18.93-30.65 18-30.75 17-30.55L17-30.55Q15.1-30.2 13.48-28.88 11.85-27.55 10.6-25.65 9.35-23.75 8.5-21.43 7.65-19.1 7.35-16.8ZM11.3-0.25L11.3-0.25Q11.85-0.2 12.43-0.2 13-0.2 13-0.05L13-0.05Q13 0 12.8 0.03 12.6 0.05 12.38 0.05 12.15 0.05 11.9 0.05 11.65 0.05 11.6 0.05L11.6 0.05Q10.05 0.05 8.55-0.4 7.05-0.85 5.78-1.68 4.5-2.5 3.5-3.7 2.5-4.9 2-6.45L2-6.45Q1-9.5 0.85-12.4 0.7-15.3 1.1-18.1L1.1-18.1Q1.3-19.7 1.88-21.73 2.45-23.75 3.43-25.85 4.4-27.95 5.88-30 7.35-32.05 9.4-33.75L9.4-33.75Q11.55-35.55 14.18-36.15 16.8-36.75 19.2-36.35 21.6-35.95 23.45-34.68 25.3-33.4 25.9-31.45L25.9-31.45Q25.95-31.35 26-31.03 26.05-30.7 25.95-30.6L25.95-30.6Q25.9-30.55 25.8-30.85 25.7-31.15 25.6-31.25L25.6-31.25Q23.5-34.1 20.85-34.88 18.2-35.65 15.6-35.02 13-34.4 10.7-32.73 8.4-31.05 7.05-29L7.05-29Q4.7-25.45 3.48-21.45 2.25-17.45 2.35-13.2L2.35-13.2Q2.4-11.25 2.78-9.1 3.15-6.95 4.25-5L4.25-5Q5.35-3 7.28-1.68 9.2-0.35 11.3-0.25ZM4.1-19.05L4.1-19.05Q4.5-21.7 5.38-24.2 6.25-26.7 7.68-28.78 9.1-30.85 11.2-32.35 13.3-33.85 16.15-34.45L16.15-34.45Q17.15-34.65 18.4-34.63 19.65-34.6 20.9-34.18 22.15-33.75 23.23-32.9 24.3-32.05 25-30.55L25-30.55Q25.65-29.1 25.45-27.7 25.25-26.3 24.6-25.18 23.95-24.05 23-23.3 22.05-22.55 21.15-22.45L21.15-22.45Q20.6-22.35 20.55-22.48 20.5-22.6 21.1-22.8L21.1-22.8Q22.05-23.1 23.03-24.33 24-25.55 24.2-27.45L24.2-27.45Q24.3-28.4 23.95-29.33 23.6-30.25 22.95-30.95 22.3-31.65 21.4-32.15 20.5-32.65 19.5-32.8L19.5-32.8Q17.35-33.1 15.55-32.5 13.75-31.9 12.43-30.98 11.1-30.05 10.28-29.15 9.45-28.25 9.25-27.95L9.25-27.95Q7.7-26 6.55-23.73 5.4-21.45 4.65-18.95L4.65-18.95Q4.65-18.9 4.58-18.6 4.5-18.3 4.42-17.98 4.35-17.65 4.25-17.38 4.15-17.1 4.1-17.1L4.1-17.1Q4-17.1 4-17.4 4-17.7 4-18.03 4-18.35 4.05-18.65 4.1-18.95 4.1-19.05ZM27.25 1L27.25 1Q27 1 26.47 0.93 25.95 0.85 25.95 0.45L25.95 0.45Q25.95 0.3 26.4 0.08 26.85-0.15 27.4-0.55 27.95-0.95 28.4-1.63 28.85-2.3 28.85-3.35L28.85-3.35Q28.85-4.65 28.35-5.3L28.35-5.3Q28.25-5.45 28.1-5.63 27.95-5.8 28-5.85L28-5.85Q28.1-5.85 28.22-5.78 28.35-5.7 28.4-5.65L28.4-5.65Q29.4-5.1 29.92-4.23 30.45-3.35 30.45-2.55L30.45-2.55Q30.45-0.95 29.7 0.03 28.95 1 27.25 1ZM25.4-0.95L25.4-0.95Q24.8-0.7 24.8-1.25L24.8-1.25Q24.8-1.65 25.1-2.02 25.4-2.4 25.67-2.85 25.95-3.3 26.05-3.88 26.15-4.45 25.75-5.3L25.75-5.3Q25.65-5.55 25.4-5.85 25.15-6.15 25.25-6.2L25.25-6.2Q25.35-6.25 25.67-6.13 26-6 26.1-5.95L26.1-5.95Q26.95-5.55 27.37-4.75 27.8-3.95 27.8-3.35L27.8-3.35Q27.8-2.4 27.02-1.78 26.25-1.15 25.4-0.95ZM23.95-3.65L23.95-3.65Q23.95-3.9 24.1-4.23 24.25-4.55 24.6-4.55L24.6-4.55Q24.85-4.55 25-4.23 25.15-3.9 25.15-3.65L25.15-3.65Q25.15-3.45 25-3.13 24.85-2.8 24.6-2.8L24.6-2.8Q24.25-2.8 24.1-3.1 23.95-3.4 23.95-3.65ZM43.7-7.65L43.7-7.65Q45.6-9.45 47.12-11.25 48.65-13.05 49.97-15.28 51.3-17.5 52.42-20.38 53.55-23.25 54.65-27.15L54.65-27.15Q55.25-29.4 55.67-31.5 56.1-33.6 56-35.6L56-35.6Q56-36 56.05-36L56.05-36Q56.15-36 56.2-35.85 56.25-35.7 56.3-35.6L56.3-35.6Q57.05-33.25 56.8-30.68 56.55-28.1 55.85-25.43 55.15-22.75 54.22-20 53.3-17.25 52.65-14.5L52.65-14.5Q52.25-12.8 52.05-10.9 51.85-9 51.92-7.13 52-5.25 52.4-3.45 52.8-1.65 53.65-0.1L53.65-0.1Q53.7-0.05 53.7 0.05L53.7 0.05 53.7 0.15Q53.55 0.15 53.5 0.1L53.5 0.1 53.4 0Q51.45-2.1 50.75-5.15L50.75-5.15Q50.05-4.3 49.32-3.5 48.6-2.7 47.3-1.85L47.3-1.85Q45.2-0.45 42.62 0.08 40.05 0.6 37.5-0.6L37.5-0.6Q36-1.35 35.2-2.58 34.4-3.8 34.02-5.23 33.65-6.65 33.57-8.13 33.5-9.6 33.45-10.8L33.45-10.8Q33.35-13.15 33.67-15.35 34-17.55 34.55-19.48 35.1-21.4 35.8-22.95 36.5-24.5 37.15-25.55L37.15-25.55Q37.2-25.65 37.32-25.78 37.45-25.9 37.5-25.9L37.5-25.9Q37.6-25.85 37.52-25.63 37.45-25.4 37.4-25.3L37.4-25.3Q36.65-23.05 36.05-20.7 35.45-18.35 35.15-15.95 34.85-13.55 34.92-11.13 35-8.7 35.6-6.25L35.6-6.25Q35.85-5.25 36.35-4.17 36.85-3.1 38-2.25L38-2.25Q38.65-1.75 39.35-1.55 40.05-1.35 40.7-1.33 41.35-1.3 41.92-1.4 42.5-1.5 43-1.65L43-1.65Q45.25-2.2 46.87-3.65 48.5-5.1 49.65-6.6L49.65-6.6Q50.1-7.1 50.4-7.75L50.4-7.75Q50.35-8.7 50.45-9.95 50.55-11.2 50.7-12.3 50.85-13.4 50.95-14.15 51.05-14.9 51-14.85L51-14.85Q49.85-12.3 48.27-10.38 46.7-8.45 45.55-7.25L45.55-7.25Q44.8-6.45 43.87-5.85 42.95-5.25 42.05-5 41.15-4.75 40.4-5 39.65-5.25 39.3-6.15L39.3-6.15Q38.6-8.2 38.3-10.68 38-13.15 38.25-15.7L38.25-15.7Q38.8-20.8 40.67-25.75 42.55-30.7 45.95-34.8L45.95-34.8Q46.15-35.05 46.32-35.15 46.5-35.25 46.2-34.75L46.2-34.75Q45.1-33.05 44.07-30.85 43.05-28.65 42.22-26.23 41.4-23.8 40.77-21.25 40.15-18.7 39.9-16.3L39.9-16.3Q39.65-13.9 39.7-11.58 39.75-9.25 40.45-7.45L40.45-7.45Q40.7-6.8 41.12-6.63 41.55-6.45 42-6.58 42.45-6.7 42.9-7.03 43.35-7.35 43.7-7.65ZM44.5-3.65L44.5-3.65Q43.95-3.35 43.35-3.05 42.75-2.75 42.12-2.58 41.5-2.4 40.8-2.4 40.1-2.4 39.35-2.65L39.35-2.65Q37.9-3.15 37.27-4.33 36.65-5.5 36.3-6.6L36.3-6.6Q35.5-9 35.57-11.38 35.65-13.75 35.95-16.45L35.95-16.45Q36.15-18.35 36.77-20.63 37.4-22.9 38.35-25.15 39.3-27.4 40.47-29.35 41.65-31.3 42.95-32.55L42.95-32.55Q43.05-32.65 43.32-32.93 43.6-33.2 43.7-33.1L43.7-33.1Q43.75-33.05 43.25-32.25L43.25-32.25Q42.75-31.45 42.05-30.1 41.35-28.75 40.65-27.03 39.95-25.3 39.27-23.33 38.6-21.35 38.15-19.25L38.15-19.25Q37.7-17.2 37.55-15.25 37.4-13.3 37.42-11.68 37.45-10.05 37.57-8.93 37.7-7.8 37.8-7.4L37.8-7.4Q38.05-6.4 38.52-5.33 39-4.25 39.85-3.85L39.85-3.85Q40.7-3.45 41.97-3.6 43.25-3.75 44.25-4.3L44.25-4.3Q44.3-4.35 44.55-4.5 44.8-4.65 45.07-4.83 45.35-5 45.57-5.13 45.8-5.25 45.85-5.2L45.85-5.2Q45.9-5.1 45.8-4.9 45.7-4.7 45.47-4.45 45.25-4.2 44.97-3.98 44.7-3.75 44.5-3.65ZM58.05-14.05L58.05-14.05Q57.45-11.65 56.62-9.15 55.8-6.65 55.2-4.8L55.2-4.8Q55.1-4.55 55-4.3 54.9-4.05 54.8-4.1L54.8-4.1Q54.65-4.15 54.65-4.42 54.65-4.7 54.65-4.95L54.65-4.95Q54.85-8.7 55.77-12.4 56.7-16.1 57.85-19.85L57.85-19.85Q58.55-22.2 59.17-24.63 59.8-27.05 59.9-29.85L59.9-29.85Q59.9-30.2 60-30.2L60-30.2Q60.15-30.2 60.25-29.85L60.25-29.85Q60.8-28.5 60.65-26.38 60.5-24.25 60.02-21.95 59.55-19.65 58.95-17.5 58.35-15.35 58.05-14.05ZM58.6-25L58.6-25Q57.9-22.3 57.1-19.45 56.3-16.6 54.85-14.05L54.85-14.05Q54.75-13.9 54.52-13.53 54.3-13.15 54.15-13.2L54.15-13.2Q54.05-13.2 54.05-13.6 54.05-14 54.1-14.25L54.1-14.25Q54.15-14.85 54.3-15.73 54.45-16.6 54.67-17.53 54.9-18.45 55.12-19.33 55.35-20.2 55.55-20.8L55.55-20.8Q55.65-21.1 55.87-21.98 56.1-22.85 56.35-24.05 56.6-25.25 56.85-26.68 57.1-28.1 57.27-29.5 57.45-30.9 57.5-32.15 57.55-33.4 57.4-34.3L57.4-34.3Q57.3-34.75 57.45-34.75L57.45-34.75Q57.55-34.75 57.65-34.65 57.75-34.55 57.8-34.45L57.8-34.45Q58.4-33.6 58.67-32.4 58.95-31.2 59.02-29.9 59.1-28.6 58.97-27.3 58.85-26 58.6-25ZM54.1-3.4L54.1-3.4Q54.25-2.4 54.42-1.6 54.6-0.8 55.05-0.05L55.05-0.05Q55.1 0 55.12 0.13 55.15 0.25 55.05 0.25L55.05 0.25Q54.8 0.25 54.55 0L54.55 0Q54-0.65 53.65-1.25 53.3-1.85 53-3.35L53-3.35Q52.9-3.95 52.85-4.8 52.8-5.65 52.85-6.45 52.9-7.25 53.02-7.78 53.15-8.3 53.35-8.3L53.35-8.3Q53.4-8.3 53.47-8.03 53.55-7.75 53.62-7.43 53.7-7.1 53.72-6.78 53.75-6.45 53.75-6.35L53.75-6.35Q53.9-4.8 54.1-3.4Z" opacity="1" transform="matrix(1,0,0,1,0,0)" fill="#ffffff" class="wordmark-text-0" data-fill-palette-color="primary" id="text-0"></path></svg></g></svg></g></svg></g></svg></g></svg></g></svg></g></svg></g></svg></g><defs></defs><mask id="59a856e9-7a3a-44a5-94af-b98aec2bd83c"><g id="SvgjsG1065"><svg viewBox="0 0 395.52 247.2" height="247.2" width="395.52"><g><svg></svg></g><g><svg viewBox="0 0 395.52 247.2" height="247.2" width="395.52"><mask id="SvgjsMask1064"><rect width="395.52" height="247.2" fill="black"></rect><g transform="matrix(1,0,0,1,65.72479758773338,37.08000000000001)" id="SvgjsG1063"><svg viewBox="0 0 264.0704048245332 173.03999999999996" height="173.03999999999996" width="264.0704048245332"><g><svg viewBox="0 0 264.0704048245332 173.03999999999996" height="173.03999999999996" width="264.0704048245332"><g><svg viewBox="0 0 264.0704048245332 173.03999999999996" height="173.03999999999996" width="264.0704048245332"><g><svg viewBox="0 0 264.0704048245332 173.03999999999996" height="173.03999999999996" width="264.0704048245332"><g id="SvgjsG1062"><svg viewBox="0 0 264.0704048245332 173.03999999999996" height="173.03999999999996" width="264.0704048245332" id="SvgjsSvg1061"><g><svg viewBox="0 0 264.0704048245332 173.03999999999996" height="173.03999999999996" width="264.0704048245332"><g transform="matrix(1,0,0,1,0,0)"><svg width="264.0704048245332" viewBox="-2.190909090909091 -39.5099989184 65.87305188742909 43.5099989184" height="173.03999999999996" data-palette-color="#ffffff"><path d="M14.05-2.1L14.05-2.1Q15.85-2.4 17.53-3.2 19.2-4 20.55-5.25L20.55-5.25Q20.65-5.3 20.95-5.6 21.25-5.9 21.35-5.8L21.35-5.8Q21.45-5.7 21.3-5.5 21.15-5.3 21.05-5.15L21.05-5.15Q20.05-3.7 18.43-2.78 16.8-1.85 15.05-1.3L15.05-1.3Q13.6-0.9 11.95-1.03 10.3-1.15 8.85-1.85L8.85-1.85Q8.4-2.05 8.3-2.18 8.2-2.3 8.3-2.35 8.4-2.4 8.63-2.4 8.85-2.4 9.05-2.35L9.05-2.35Q9.6-2.25 10.33-2.18 11.05-2.1 11.78-2.08 12.5-2.05 13.1-2.05 13.7-2.05 14.05-2.1ZM7.35-16.8L7.35-16.8Q7.1-15.05 7.1-13.38 7.1-11.7 7.33-10.23 7.55-8.75 8.03-7.6 8.5-6.45 9.2-5.7L9.2-5.7Q10-4.9 11.18-4.48 12.35-4.05 13.73-4.05 15.1-4.05 16.63-4.45 18.15-4.85 19.65-5.7L19.65-5.7Q19.95-5.9 20.05-5.8L20.05-5.8Q20.15-5.7 19.98-5.58 19.8-5.45 19.65-5.35L19.65-5.35Q18.35-4.35 16.9-3.75 15.45-3.15 13.98-3 12.5-2.85 11.13-3.18 9.75-3.5 8.65-4.4L8.65-4.4Q7.6-5.3 6.95-6.58 6.3-7.85 5.98-9.38 5.65-10.9 5.6-12.55 5.55-14.2 5.7-15.8L5.7-15.8Q5.9-18.35 6.7-20.95 7.5-23.55 8.83-25.75 10.15-27.95 12-29.6 13.85-31.25 16.15-31.9L16.15-31.9Q17.3-32.2 18.5-32.15 19.7-32.1 20.73-31.7 21.75-31.3 22.5-30.53 23.25-29.75 23.5-28.65L23.5-28.65Q23.75-27.45 23.3-26.33 22.85-25.2 22.05-24.38 21.25-23.55 20.25-23.2 19.25-22.85 18.35-23.2L18.35-23.2Q18.3-23.2 18.28-23.35 18.25-23.5 18.45-23.45L18.45-23.45Q19.05-23.35 19.83-23.73 20.6-24.1 21.23-24.75 21.85-25.4 22.23-26.3 22.6-27.2 22.45-28.15L22.45-28.15Q22.3-28.85 21.83-29.38 21.35-29.9 20.6-30.23 19.85-30.55 18.93-30.65 18-30.75 17-30.55L17-30.55Q15.1-30.2 13.48-28.88 11.85-27.55 10.6-25.65 9.35-23.75 8.5-21.43 7.65-19.1 7.35-16.8ZM11.3-0.25L11.3-0.25Q11.85-0.2 12.43-0.2 13-0.2 13-0.05L13-0.05Q13 0 12.8 0.03 12.6 0.05 12.38 0.05 12.15 0.05 11.9 0.05 11.65 0.05 11.6 0.05L11.6 0.05Q10.05 0.05 8.55-0.4 7.05-0.85 5.78-1.68 4.5-2.5 3.5-3.7 2.5-4.9 2-6.45L2-6.45Q1-9.5 0.85-12.4 0.7-15.3 1.1-18.1L1.1-18.1Q1.3-19.7 1.88-21.73 2.45-23.75 3.43-25.85 4.4-27.95 5.88-30 7.35-32.05 9.4-33.75L9.4-33.75Q11.55-35.55 14.18-36.15 16.8-36.75 19.2-36.35 21.6-35.95 23.45-34.68 25.3-33.4 25.9-31.45L25.9-31.45Q25.95-31.35 26-31.03 26.05-30.7 25.95-30.6L25.95-30.6Q25.9-30.55 25.8-30.85 25.7-31.15 25.6-31.25L25.6-31.25Q23.5-34.1 20.85-34.88 18.2-35.65 15.6-35.02 13-34.4 10.7-32.73 8.4-31.05 7.05-29L7.05-29Q4.7-25.45 3.48-21.45 2.25-17.45 2.35-13.2L2.35-13.2Q2.4-11.25 2.78-9.1 3.15-6.95 4.25-5L4.25-5Q5.35-3 7.28-1.68 9.2-0.35 11.3-0.25ZM4.1-19.05L4.1-19.05Q4.5-21.7 5.38-24.2 6.25-26.7 7.68-28.78 9.1-30.85 11.2-32.35 13.3-33.85 16.15-34.45L16.15-34.45Q17.15-34.65 18.4-34.63 19.65-34.6 20.9-34.18 22.15-33.75 23.23-32.9 24.3-32.05 25-30.55L25-30.55Q25.65-29.1 25.45-27.7 25.25-26.3 24.6-25.18 23.95-24.05 23-23.3 22.05-22.55 21.15-22.45L21.15-22.45Q20.6-22.35 20.55-22.48 20.5-22.6 21.1-22.8L21.1-22.8Q22.05-23.1 23.03-24.33 24-25.55 24.2-27.45L24.2-27.45Q24.3-28.4 23.95-29.33 23.6-30.25 22.95-30.95 22.3-31.65 21.4-32.15 20.5-32.65 19.5-32.8L19.5-32.8Q17.35-33.1 15.55-32.5 13.75-31.9 12.43-30.98 11.1-30.05 10.28-29.15 9.45-28.25 9.25-27.95L9.25-27.95Q7.7-26 6.55-23.73 5.4-21.45 4.65-18.95L4.65-18.95Q4.65-18.9 4.58-18.6 4.5-18.3 4.42-17.98 4.35-17.65 4.25-17.38 4.15-17.1 4.1-17.1L4.1-17.1Q4-17.1 4-17.4 4-17.7 4-18.03 4-18.35 4.05-18.65 4.1-18.95 4.1-19.05ZM27.25 1L27.25 1Q27 1 26.47 0.93 25.95 0.85 25.95 0.45L25.95 0.45Q25.95 0.3 26.4 0.08 26.85-0.15 27.4-0.55 27.95-0.95 28.4-1.63 28.85-2.3 28.85-3.35L28.85-3.35Q28.85-4.65 28.35-5.3L28.35-5.3Q28.25-5.45 28.1-5.63 27.95-5.8 28-5.85L28-5.85Q28.1-5.85 28.22-5.78 28.35-5.7 28.4-5.65L28.4-5.65Q29.4-5.1 29.92-4.23 30.45-3.35 30.45-2.55L30.45-2.55Q30.45-0.95 29.7 0.03 28.95 1 27.25 1ZM25.4-0.95L25.4-0.95Q24.8-0.7 24.8-1.25L24.8-1.25Q24.8-1.65 25.1-2.02 25.4-2.4 25.67-2.85 25.95-3.3 26.05-3.88 26.15-4.45 25.75-5.3L25.75-5.3Q25.65-5.55 25.4-5.85 25.15-6.15 25.25-6.2L25.25-6.2Q25.35-6.25 25.67-6.13 26-6 26.1-5.95L26.1-5.95Q26.95-5.55 27.37-4.75 27.8-3.95 27.8-3.35L27.8-3.35Q27.8-2.4 27.02-1.78 26.25-1.15 25.4-0.95ZM23.95-3.65L23.95-3.65Q23.95-3.9 24.1-4.23 24.25-4.55 24.6-4.55L24.6-4.55Q24.85-4.55 25-4.23 25.15-3.9 25.15-3.65L25.15-3.65Q25.15-3.45 25-3.13 24.85-2.8 24.6-2.8L24.6-2.8Q24.25-2.8 24.1-3.1 23.95-3.4 23.95-3.65ZM43.7-7.65L43.7-7.65Q45.6-9.45 47.12-11.25 48.65-13.05 49.97-15.28 51.3-17.5 52.42-20.38 53.55-23.25 54.65-27.15L54.65-27.15Q55.25-29.4 55.67-31.5 56.1-33.6 56-35.6L56-35.6Q56-36 56.05-36L56.05-36Q56.15-36 56.2-35.85 56.25-35.7 56.3-35.6L56.3-35.6Q57.05-33.25 56.8-30.68 56.55-28.1 55.85-25.43 55.15-22.75 54.22-20 53.3-17.25 52.65-14.5L52.65-14.5Q52.25-12.8 52.05-10.9 51.85-9 51.92-7.13 52-5.25 52.4-3.45 52.8-1.65 53.65-0.1L53.65-0.1Q53.7-0.05 53.7 0.05L53.7 0.05 53.7 0.15Q53.55 0.15 53.5 0.1L53.5 0.1 53.4 0Q51.45-2.1 50.75-5.15L50.75-5.15Q50.05-4.3 49.32-3.5 48.6-2.7 47.3-1.85L47.3-1.85Q45.2-0.45 42.62 0.08 40.05 0.6 37.5-0.6L37.5-0.6Q36-1.35 35.2-2.58 34.4-3.8 34.02-5.23 33.65-6.65 33.57-8.13 33.5-9.6 33.45-10.8L33.45-10.8Q33.35-13.15 33.67-15.35 34-17.55 34.55-19.48 35.1-21.4 35.8-22.95 36.5-24.5 37.15-25.55L37.15-25.55Q37.2-25.65 37.32-25.78 37.45-25.9 37.5-25.9L37.5-25.9Q37.6-25.85 37.52-25.63 37.45-25.4 37.4-25.3L37.4-25.3Q36.65-23.05 36.05-20.7 35.45-18.35 35.15-15.95 34.85-13.55 34.92-11.13 35-8.7 35.6-6.25L35.6-6.25Q35.85-5.25 36.35-4.17 36.85-3.1 38-2.25L38-2.25Q38.65-1.75 39.35-1.55 40.05-1.35 40.7-1.33 41.35-1.3 41.92-1.4 42.5-1.5 43-1.65L43-1.65Q45.25-2.2 46.87-3.65 48.5-5.1 49.65-6.6L49.65-6.6Q50.1-7.1 50.4-7.75L50.4-7.75Q50.35-8.7 50.45-9.95 50.55-11.2 50.7-12.3 50.85-13.4 50.95-14.15 51.05-14.9 51-14.85L51-14.85Q49.85-12.3 48.27-10.38 46.7-8.45 45.55-7.25L45.55-7.25Q44.8-6.45 43.87-5.85 42.95-5.25 42.05-5 41.15-4.75 40.4-5 39.65-5.25 39.3-6.15L39.3-6.15Q38.6-8.2 38.3-10.68 38-13.15 38.25-15.7L38.25-15.7Q38.8-20.8 40.67-25.75 42.55-30.7 45.95-34.8L45.95-34.8Q46.15-35.05 46.32-35.15 46.5-35.25 46.2-34.75L46.2-34.75Q45.1-33.05 44.07-30.85 43.05-28.65 42.22-26.23 41.4-23.8 40.77-21.25 40.15-18.7 39.9-16.3L39.9-16.3Q39.65-13.9 39.7-11.58 39.75-9.25 40.45-7.45L40.45-7.45Q40.7-6.8 41.12-6.63 41.55-6.45 42-6.58 42.45-6.7 42.9-7.03 43.35-7.35 43.7-7.65ZM44.5-3.65L44.5-3.65Q43.95-3.35 43.35-3.05 42.75-2.75 42.12-2.58 41.5-2.4 40.8-2.4 40.1-2.4 39.35-2.65L39.35-2.65Q37.9-3.15 37.27-4.33 36.65-5.5 36.3-6.6L36.3-6.6Q35.5-9 35.57-11.38 35.65-13.75 35.95-16.45L35.95-16.45Q36.15-18.35 36.77-20.63 37.4-22.9 38.35-25.15 39.3-27.4 40.47-29.35 41.65-31.3 42.95-32.55L42.95-32.55Q43.05-32.65 43.32-32.93 43.6-33.2 43.7-33.1L43.7-33.1Q43.75-33.05 43.25-32.25L43.25-32.25Q42.75-31.45 42.05-30.1 41.35-28.75 40.65-27.03 39.95-25.3 39.27-23.33 38.6-21.35 38.15-19.25L38.15-19.25Q37.7-17.2 37.55-15.25 37.4-13.3 37.42-11.68 37.45-10.05 37.57-8.93 37.7-7.8 37.8-7.4L37.8-7.4Q38.05-6.4 38.52-5.33 39-4.25 39.85-3.85L39.85-3.85Q40.7-3.45 41.97-3.6 43.25-3.75 44.25-4.3L44.25-4.3Q44.3-4.35 44.55-4.5 44.8-4.65 45.07-4.83 45.35-5 45.57-5.13 45.8-5.25 45.85-5.2L45.85-5.2Q45.9-5.1 45.8-4.9 45.7-4.7 45.47-4.45 45.25-4.2 44.97-3.98 44.7-3.75 44.5-3.65ZM58.05-14.05L58.05-14.05Q57.45-11.65 56.62-9.15 55.8-6.65 55.2-4.8L55.2-4.8Q55.1-4.55 55-4.3 54.9-4.05 54.8-4.1L54.8-4.1Q54.65-4.15 54.65-4.42 54.65-4.7 54.65-4.95L54.65-4.95Q54.85-8.7 55.77-12.4 56.7-16.1 57.85-19.85L57.85-19.85Q58.55-22.2 59.17-24.63 59.8-27.05 59.9-29.85L59.9-29.85Q59.9-30.2 60-30.2L60-30.2Q60.15-30.2 60.25-29.85L60.25-29.85Q60.8-28.5 60.65-26.38 60.5-24.25 60.02-21.95 59.55-19.65 58.95-17.5 58.35-15.35 58.05-14.05ZM58.6-25L58.6-25Q57.9-22.3 57.1-19.45 56.3-16.6 54.85-14.05L54.85-14.05Q54.75-13.9 54.52-13.53 54.3-13.15 54.15-13.2L54.15-13.2Q54.05-13.2 54.05-13.6 54.05-14 54.1-14.25L54.1-14.25Q54.15-14.85 54.3-15.73 54.45-16.6 54.67-17.53 54.9-18.45 55.12-19.33 55.35-20.2 55.55-20.8L55.55-20.8Q55.65-21.1 55.87-21.98 56.1-22.85 56.35-24.05 56.6-25.25 56.85-26.68 57.1-28.1 57.27-29.5 57.45-30.9 57.5-32.15 57.55-33.4 57.4-34.3L57.4-34.3Q57.3-34.75 57.45-34.75L57.45-34.75Q57.55-34.75 57.65-34.65 57.75-34.55 57.8-34.45L57.8-34.45Q58.4-33.6 58.67-32.4 58.95-31.2 59.02-29.9 59.1-28.6 58.97-27.3 58.85-26 58.6-25ZM54.1-3.4L54.1-3.4Q54.25-2.4 54.42-1.6 54.6-0.8 55.05-0.05L55.05-0.05Q55.1 0 55.12 0.13 55.15 0.25 55.05 0.25L55.05 0.25Q54.8 0.25 54.55 0L54.55 0Q54-0.65 53.65-1.25 53.3-1.85 53-3.35L53-3.35Q52.9-3.95 52.85-4.8 52.8-5.65 52.85-6.45 52.9-7.25 53.02-7.78 53.15-8.3 53.35-8.3L53.35-8.3Q53.4-8.3 53.47-8.03 53.55-7.75 53.62-7.43 53.7-7.1 53.72-6.78 53.75-6.45 53.75-6.35L53.75-6.35Q53.9-4.8 54.1-3.4Z" opacity="1" transform="matrix(1,0,0,1,0,0)" fill="black" class="wordmark-text-0" id="SvgjsPath1060" stroke-width="5" stroke="black" stroke-linejoin="round"></path></svg></g></svg></g></svg></g></svg></g></svg></g></svg></g></svg></g></mask><g mask="url(#fa52132e-27ca-4553-9273-2b38ac36ab9e)"><g><path d="M202.068 232.663v0c8.114-1.352 15.957-3.832 23.53-7.438 7.528-3.606 14.334-8.226 20.42-13.861v0c0.451-0.225 1.352-1.014 2.704-2.366 1.352-1.352 2.254-1.803 2.705-1.353v0c0.451 0.451 0.338 1.127-0.338 2.029-0.676 0.902-1.24 1.69-1.691 2.366v0c-4.508 6.536-10.413 11.878-17.715 16.025-7.347 4.192-14.965 7.528-22.854 10.007v0c-6.536 1.803-13.523 2.412-20.96 1.826-7.438-0.541-14.425-2.389-20.961-5.545v0c-2.028-0.902-3.268-1.645-3.719-2.231-0.451-0.541-0.451-0.924 0-1.15 0.451-0.225 1.195-0.338 2.232-0.338 0.992 0 1.938 0.113 2.839 0.338v0c2.479 0.451 5.364 0.834 8.655 1.15 3.246 0.361 6.514 0.586 9.804 0.676 3.246 0.135 6.221 0.203 8.925 0.203 2.705 0 4.846-0.113 6.424-0.338zM156.766 133.269v0c-1.127 7.888-1.69 15.597-1.69 23.124 0 7.573 0.518 14.672 1.555 21.299 0.992 6.671 2.569 12.599 4.733 17.783 2.119 5.184 4.756 9.466 7.911 12.846v0c3.606 3.606 8.069 6.356 13.387 8.249 5.274 1.938 11.021 2.907 17.242 2.908 6.175 0 12.712-0.902 19.609-2.705 6.852-1.803 13.658-4.62 20.419-8.452v0c1.352-0.902 2.254-1.127 2.705-0.676v0c0.451 0.451 0.293 0.947-0.473 1.488-0.811 0.586-1.555 1.104-2.232 1.555v0c-5.86 4.508-12.058 8.114-18.594 10.818-6.536 2.705-13.117 4.395-19.743 5.071-6.671 0.676-13.095 0.27-19.271-1.217-6.221-1.442-11.81-4.192-16.768-8.249v0c-4.733-4.057-8.565-8.97-11.495-14.74-2.93-5.725-5.116-12.035-6.558-18.932-1.488-6.852-2.344-13.996-2.57-21.434-0.225-7.438 0-14.763 0.676-21.975v0c0.902-11.495 3.155-23.102 6.762-34.821 3.606-11.72 8.407-22.538 14.402-32.455 5.95-9.917 13.095-18.594 21.434-26.032 8.339-7.438 17.693-12.621 28.06-15.552v0c5.184-1.352 10.48-1.916 15.89-1.69 5.409 0.225 10.435 1.24 15.078 3.043 4.598 1.803 8.587 4.44 11.967 7.911 3.381 3.516 5.635 7.753 6.762 12.711v0c1.127 5.409 0.676 10.638-1.352 15.687-2.028 5.094-4.846 9.489-8.452 13.185-3.606 3.741-7.663 6.401-12.171 7.978-4.508 1.578-8.79 1.578-12.847 0v0c-0.225 0-0.383-0.338-0.473-1.014-0.135-0.676 0.248-0.902 1.149-0.676v0c2.705 0.451 5.815-0.18 9.331-1.893 3.471-1.668 6.626-3.967 9.466-6.897 2.795-2.93 5.049-6.423 6.762-10.48 1.668-4.057 2.164-8.226 1.487-12.509v0c-0.676-3.155-2.074-5.928-4.192-8.317-2.164-2.344-4.936-4.26-8.316-5.747-3.381-1.442-7.145-2.389-11.292-2.84-4.192-0.451-8.542-0.225-13.05 0.676v0c-8.565 1.578-16.498 5.342-23.8 11.292-7.347 5.995-13.839 13.275-19.473 21.84-5.635 8.565-10.368 18.076-14.199 28.533-3.832 10.503-6.423 20.938-7.776 31.306zM183.474 245.172v0c2.479 0.225 5.026 0.338 7.64 0.338 2.569 0 3.854 0.338 3.854 1.014v0c0 0.225-0.451 0.406-1.352 0.541-0.902 0.09-1.848 0.135-2.84 0.135-1.037 0-2.119 0-3.245 0-1.127 0-1.803 0-2.029 0v0c-6.987 0-13.861-1.014-20.622-3.043-6.761-2.028-13.005-4.913-18.73-8.654-5.77-3.696-10.909-8.249-15.416-13.659-4.508-5.409-7.888-11.607-10.142-18.594v0c-4.508-13.748-7.1-27.159-7.776-40.231-0.676-13.072-0.113-25.919 1.691-38.54v0c0.902-7.212 2.66-15.394 5.274-24.544 2.569-9.105 6.063-18.391 10.48-27.858 4.372-9.466 9.894-18.819 16.566-28.06 6.626-9.241 14.56-17.693 23.8-25.355v0c9.691-8.114 20.465-13.523 32.32-16.228 11.81-2.705 23.124-3.155 33.943-1.352 10.818 1.803 20.397 5.567 28.736 11.292 8.339 5.77 13.861 13.05 16.566 21.839v0c0.225 0.451 0.451 1.397 0.676 2.84 0.225 1.488 0.113 2.457-0.338 2.907v0c-0.225 0.225-0.563-0.338-1.015-1.69-0.451-1.352-0.902-2.254-1.352-2.705v0c-9.466-12.847-20.172-21.028-32.117-24.544-11.945-3.471-23.778-3.786-35.498-0.946-11.72 2.795-22.764 7.956-33.131 15.483-10.368 7.573-18.594 15.98-24.679 25.221v0c-10.593 16.002-18.639 33.019-24.139 51.049-5.544 18.031-8.091 36.625-7.64 55.782v0c0.225 8.79 1.195 18.031 2.907 27.722 1.668 9.691 4.981 18.932 9.939 27.722v0c4.958 9.015 11.788 16.498 20.488 22.449 8.655 5.995 17.715 9.218 27.181 9.669zM134.791 118.056v0c1.803-11.945 4.688-23.553 8.655-34.822 3.922-11.269 9.105-21.592 15.551-30.968 6.401-9.331 14.334-17.377 23.801-24.138 9.466-6.761 20.623-11.495 33.469-14.199v0c4.508-0.902 9.579-1.307 15.213-1.217 5.635 0.135 11.269 1.149 16.904 3.042 5.635 1.938 10.886 4.823 15.754 8.655 4.823 3.832 8.812 9.128 11.968 15.889v0c2.93 6.536 3.944 12.96 3.043 19.271-0.902 6.311-2.817 11.99-5.747 17.039-2.93 5.094-6.536 9.331-10.819 12.711-4.282 3.381-8.452 5.296-12.509 5.748v0c-2.479 0.451-3.832 0.383-4.056-0.203-0.225-0.541 1.014-1.262 3.718-2.164v0c4.282-1.352 8.632-4.801 13.05-10.345 4.372-5.499 7.009-12.531 7.911-21.096v0c0.451-4.282-0.113-8.519-1.69-12.712-1.578-4.147-3.832-7.798-6.762-10.953-2.93-3.155-6.423-5.86-10.48-8.114-4.057-2.254-8.339-3.719-12.847-4.395v0c-9.691-1.352-18.594-0.676-26.708 2.029-8.114 2.705-15.146 6.13-21.096 10.277-5.995 4.192-10.841 8.317-14.537 12.374-3.741 4.057-6.063 6.761-6.964 8.113v0c-6.987 8.79-13.072 18.301-18.256 28.534-5.184 10.277-9.466 21.051-12.847 32.32v0c0 0.225-0.158 1.014-0.473 2.366-0.361 1.352-0.721 2.75-1.082 4.192-0.316 1.488-0.699 2.84-1.15 4.057-0.451 1.262-0.789 1.893-1.014 1.893v0c-0.451 0-0.676-0.676-0.676-2.028 0-1.352 0-2.772 0-4.26 0-1.442 0.113-2.84 0.338-4.192 0.225-1.352 0.338-2.254 0.338-2.704z" fill="white" fill-rule="nonzero" stroke="none" stroke-width="1" stroke-linecap="butt" stroke-linejoin="miter" stroke-miterlimit="10" stroke-dasharray="" stroke-dashoffset="0" font-family="none" font-weight="none" font-size="none" text-anchor="none" style="mix-blend-mode: normal"></path></g></g><g transform="matrix(1,0,0,1,65.72479758773338,37.08000000000001)"><svg viewBox="0 0 264.0704048245332 173.03999999999996" height="173.03999999999996" width="264.0704048245332"><g><svg viewBox="0 0 264.0704048245332 173.03999999999996" height="173.03999999999996" width="264.0704048245332"><g><svg viewBox="0 0 264.0704048245332 173.03999999999996" height="173.03999999999996" width="264.0704048245332"><g><svg viewBox="0 0 264.0704048245332 173.03999999999996" height="173.03999999999996" width="264.0704048245332"><g id="SvgjsG1059"><svg viewBox="0 0 264.0704048245332 173.03999999999996" height="173.03999999999996" width="264.0704048245332" id="SvgjsSvg1058"><g><svg viewBox="0 0 264.0704048245332 173.03999999999996" height="173.03999999999996" width="264.0704048245332"><g transform="matrix(1,0,0,1,0,0)"><svg width="264.0704048245332" viewBox="-2.190909090909091 -39.5099989184 65.87305188742909 43.5099989184" height="173.03999999999996" data-palette-color="#ffffff"><path d="M14.05-2.1L14.05-2.1Q15.85-2.4 17.53-3.2 19.2-4 20.55-5.25L20.55-5.25Q20.65-5.3 20.95-5.6 21.25-5.9 21.35-5.8L21.35-5.8Q21.45-5.7 21.3-5.5 21.15-5.3 21.05-5.15L21.05-5.15Q20.05-3.7 18.43-2.78 16.8-1.85 15.05-1.3L15.05-1.3Q13.6-0.9 11.95-1.03 10.3-1.15 8.85-1.85L8.85-1.85Q8.4-2.05 8.3-2.18 8.2-2.3 8.3-2.35 8.4-2.4 8.63-2.4 8.85-2.4 9.05-2.35L9.05-2.35Q9.6-2.25 10.33-2.18 11.05-2.1 11.78-2.08 12.5-2.05 13.1-2.05 13.7-2.05 14.05-2.1ZM7.35-16.8L7.35-16.8Q7.1-15.05 7.1-13.38 7.1-11.7 7.33-10.23 7.55-8.75 8.03-7.6 8.5-6.45 9.2-5.7L9.2-5.7Q10-4.9 11.18-4.48 12.35-4.05 13.73-4.05 15.1-4.05 16.63-4.45 18.15-4.85 19.65-5.7L19.65-5.7Q19.95-5.9 20.05-5.8L20.05-5.8Q20.15-5.7 19.98-5.58 19.8-5.45 19.65-5.35L19.65-5.35Q18.35-4.35 16.9-3.75 15.45-3.15 13.98-3 12.5-2.85 11.13-3.18 9.75-3.5 8.65-4.4L8.65-4.4Q7.6-5.3 6.95-6.58 6.3-7.85 5.98-9.38 5.65-10.9 5.6-12.55 5.55-14.2 5.7-15.8L5.7-15.8Q5.9-18.35 6.7-20.95 7.5-23.55 8.83-25.75 10.15-27.95 12-29.6 13.85-31.25 16.15-31.9L16.15-31.9Q17.3-32.2 18.5-32.15 19.7-32.1 20.73-31.7 21.75-31.3 22.5-30.53 23.25-29.75 23.5-28.65L23.5-28.65Q23.75-27.45 23.3-26.33 22.85-25.2 22.05-24.38 21.25-23.55 20.25-23.2 19.25-22.85 18.35-23.2L18.35-23.2Q18.3-23.2 18.28-23.35 18.25-23.5 18.45-23.45L18.45-23.45Q19.05-23.35 19.83-23.73 20.6-24.1 21.23-24.75 21.85-25.4 22.23-26.3 22.6-27.2 22.45-28.15L22.45-28.15Q22.3-28.85 21.83-29.38 21.35-29.9 20.6-30.23 19.85-30.55 18.93-30.65 18-30.75 17-30.55L17-30.55Q15.1-30.2 13.48-28.88 11.85-27.55 10.6-25.65 9.35-23.75 8.5-21.43 7.65-19.1 7.35-16.8ZM11.3-0.25L11.3-0.25Q11.85-0.2 12.43-0.2 13-0.2 13-0.05L13-0.05Q13 0 12.8 0.03 12.6 0.05 12.38 0.05 12.15 0.05 11.9 0.05 11.65 0.05 11.6 0.05L11.6 0.05Q10.05 0.05 8.55-0.4 7.05-0.85 5.78-1.68 4.5-2.5 3.5-3.7 2.5-4.9 2-6.45L2-6.45Q1-9.5 0.85-12.4 0.7-15.3 1.1-18.1L1.1-18.1Q1.3-19.7 1.88-21.73 2.45-23.75 3.43-25.85 4.4-27.95 5.88-30 7.35-32.05 9.4-33.75L9.4-33.75Q11.55-35.55 14.18-36.15 16.8-36.75 19.2-36.35 21.6-35.95 23.45-34.68 25.3-33.4 25.9-31.45L25.9-31.45Q25.95-31.35 26-31.03 26.05-30.7 25.95-30.6L25.95-30.6Q25.9-30.55 25.8-30.85 25.7-31.15 25.6-31.25L25.6-31.25Q23.5-34.1 20.85-34.88 18.2-35.65 15.6-35.02 13-34.4 10.7-32.73 8.4-31.05 7.05-29L7.05-29Q4.7-25.45 3.48-21.45 2.25-17.45 2.35-13.2L2.35-13.2Q2.4-11.25 2.78-9.1 3.15-6.95 4.25-5L4.25-5Q5.35-3 7.28-1.68 9.2-0.35 11.3-0.25ZM4.1-19.05L4.1-19.05Q4.5-21.7 5.38-24.2 6.25-26.7 7.68-28.78 9.1-30.85 11.2-32.35 13.3-33.85 16.15-34.45L16.15-34.45Q17.15-34.65 18.4-34.63 19.65-34.6 20.9-34.18 22.15-33.75 23.23-32.9 24.3-32.05 25-30.55L25-30.55Q25.65-29.1 25.45-27.7 25.25-26.3 24.6-25.18 23.95-24.05 23-23.3 22.05-22.55 21.15-22.45L21.15-22.45Q20.6-22.35 20.55-22.48 20.5-22.6 21.1-22.8L21.1-22.8Q22.05-23.1 23.03-24.33 24-25.55 24.2-27.45L24.2-27.45Q24.3-28.4 23.95-29.33 23.6-30.25 22.95-30.95 22.3-31.65 21.4-32.15 20.5-32.65 19.5-32.8L19.5-32.8Q17.35-33.1 15.55-32.5 13.75-31.9 12.43-30.98 11.1-30.05 10.28-29.15 9.45-28.25 9.25-27.95L9.25-27.95Q7.7-26 6.55-23.73 5.4-21.45 4.65-18.95L4.65-18.95Q4.65-18.9 4.58-18.6 4.5-18.3 4.42-17.98 4.35-17.65 4.25-17.38 4.15-17.1 4.1-17.1L4.1-17.1Q4-17.1 4-17.4 4-17.7 4-18.03 4-18.35 4.05-18.65 4.1-18.95 4.1-19.05ZM27.25 1L27.25 1Q27 1 26.47 0.93 25.95 0.85 25.95 0.45L25.95 0.45Q25.95 0.3 26.4 0.08 26.85-0.15 27.4-0.55 27.95-0.95 28.4-1.63 28.85-2.3 28.85-3.35L28.85-3.35Q28.85-4.65 28.35-5.3L28.35-5.3Q28.25-5.45 28.1-5.63 27.95-5.8 28-5.85L28-5.85Q28.1-5.85 28.22-5.78 28.35-5.7 28.4-5.65L28.4-5.65Q29.4-5.1 29.92-4.23 30.45-3.35 30.45-2.55L30.45-2.55Q30.45-0.95 29.7 0.03 28.95 1 27.25 1ZM25.4-0.95L25.4-0.95Q24.8-0.7 24.8-1.25L24.8-1.25Q24.8-1.65 25.1-2.02 25.4-2.4 25.67-2.85 25.95-3.3 26.05-3.88 26.15-4.45 25.75-5.3L25.75-5.3Q25.65-5.55 25.4-5.85 25.15-6.15 25.25-6.2L25.25-6.2Q25.35-6.25 25.67-6.13 26-6 26.1-5.95L26.1-5.95Q26.95-5.55 27.37-4.75 27.8-3.95 27.8-3.35L27.8-3.35Q27.8-2.4 27.02-1.78 26.25-1.15 25.4-0.95ZM23.95-3.65L23.95-3.65Q23.95-3.9 24.1-4.23 24.25-4.55 24.6-4.55L24.6-4.55Q24.85-4.55 25-4.23 25.15-3.9 25.15-3.65L25.15-3.65Q25.15-3.45 25-3.13 24.85-2.8 24.6-2.8L24.6-2.8Q24.25-2.8 24.1-3.1 23.95-3.4 23.95-3.65ZM43.7-7.65L43.7-7.65Q45.6-9.45 47.12-11.25 48.65-13.05 49.97-15.28 51.3-17.5 52.42-20.38 53.55-23.25 54.65-27.15L54.65-27.15Q55.25-29.4 55.67-31.5 56.1-33.6 56-35.6L56-35.6Q56-36 56.05-36L56.05-36Q56.15-36 56.2-35.85 56.25-35.7 56.3-35.6L56.3-35.6Q57.05-33.25 56.8-30.68 56.55-28.1 55.85-25.43 55.15-22.75 54.22-20 53.3-17.25 52.65-14.5L52.65-14.5Q52.25-12.8 52.05-10.9 51.85-9 51.92-7.13 52-5.25 52.4-3.45 52.8-1.65 53.65-0.1L53.65-0.1Q53.7-0.05 53.7 0.05L53.7 0.05 53.7 0.15Q53.55 0.15 53.5 0.1L53.5 0.1 53.4 0Q51.45-2.1 50.75-5.15L50.75-5.15Q50.05-4.3 49.32-3.5 48.6-2.7 47.3-1.85L47.3-1.85Q45.2-0.45 42.62 0.08 40.05 0.6 37.5-0.6L37.5-0.6Q36-1.35 35.2-2.58 34.4-3.8 34.02-5.23 33.65-6.65 33.57-8.13 33.5-9.6 33.45-10.8L33.45-10.8Q33.35-13.15 33.67-15.35 34-17.55 34.55-19.48 35.1-21.4 35.8-22.95 36.5-24.5 37.15-25.55L37.15-25.55Q37.2-25.65 37.32-25.78 37.45-25.9 37.5-25.9L37.5-25.9Q37.6-25.85 37.52-25.63 37.45-25.4 37.4-25.3L37.4-25.3Q36.65-23.05 36.05-20.7 35.45-18.35 35.15-15.95 34.85-13.55 34.92-11.13 35-8.7 35.6-6.25L35.6-6.25Q35.85-5.25 36.35-4.17 36.85-3.1 38-2.25L38-2.25Q38.65-1.75 39.35-1.55 40.05-1.35 40.7-1.33 41.35-1.3 41.92-1.4 42.5-1.5 43-1.65L43-1.65Q45.25-2.2 46.87-3.65 48.5-5.1 49.65-6.6L49.65-6.6Q50.1-7.1 50.4-7.75L50.4-7.75Q50.35-8.7 50.45-9.95 50.55-11.2 50.7-12.3 50.85-13.4 50.95-14.15 51.05-14.9 51-14.85L51-14.85Q49.85-12.3 48.27-10.38 46.7-8.45 45.55-7.25L45.55-7.25Q44.8-6.45 43.87-5.85 42.95-5.25 42.05-5 41.15-4.75 40.4-5 39.65-5.25 39.3-6.15L39.3-6.15Q38.6-8.2 38.3-10.68 38-13.15 38.25-15.7L38.25-15.7Q38.8-20.8 40.67-25.75 42.55-30.7 45.95-34.8L45.95-34.8Q46.15-35.05 46.32-35.15 46.5-35.25 46.2-34.75L46.2-34.75Q45.1-33.05 44.07-30.85 43.05-28.65 42.22-26.23 41.4-23.8 40.77-21.25 40.15-18.7 39.9-16.3L39.9-16.3Q39.65-13.9 39.7-11.58 39.75-9.25 40.45-7.45L40.45-7.45Q40.7-6.8 41.12-6.63 41.55-6.45 42-6.58 42.45-6.7 42.9-7.03 43.35-7.35 43.7-7.65ZM44.5-3.65L44.5-3.65Q43.95-3.35 43.35-3.05 42.75-2.75 42.12-2.58 41.5-2.4 40.8-2.4 40.1-2.4 39.35-2.65L39.35-2.65Q37.9-3.15 37.27-4.33 36.65-5.5 36.3-6.6L36.3-6.6Q35.5-9 35.57-11.38 35.65-13.75 35.95-16.45L35.95-16.45Q36.15-18.35 36.77-20.63 37.4-22.9 38.35-25.15 39.3-27.4 40.47-29.35 41.65-31.3 42.95-32.55L42.95-32.55Q43.05-32.65 43.32-32.93 43.6-33.2 43.7-33.1L43.7-33.1Q43.75-33.05 43.25-32.25L43.25-32.25Q42.75-31.45 42.05-30.1 41.35-28.75 40.65-27.03 39.95-25.3 39.27-23.33 38.6-21.35 38.15-19.25L38.15-19.25Q37.7-17.2 37.55-15.25 37.4-13.3 37.42-11.68 37.45-10.05 37.57-8.93 37.7-7.8 37.8-7.4L37.8-7.4Q38.05-6.4 38.52-5.33 39-4.25 39.85-3.85L39.85-3.85Q40.7-3.45 41.97-3.6 43.25-3.75 44.25-4.3L44.25-4.3Q44.3-4.35 44.55-4.5 44.8-4.65 45.07-4.83 45.35-5 45.57-5.13 45.8-5.25 45.85-5.2L45.85-5.2Q45.9-5.1 45.8-4.9 45.7-4.7 45.47-4.45 45.25-4.2 44.97-3.98 44.7-3.75 44.5-3.65ZM58.05-14.05L58.05-14.05Q57.45-11.65 56.62-9.15 55.8-6.65 55.2-4.8L55.2-4.8Q55.1-4.55 55-4.3 54.9-4.05 54.8-4.1L54.8-4.1Q54.65-4.15 54.65-4.42 54.65-4.7 54.65-4.95L54.65-4.95Q54.85-8.7 55.77-12.4 56.7-16.1 57.85-19.85L57.85-19.85Q58.55-22.2 59.17-24.63 59.8-27.05 59.9-29.85L59.9-29.85Q59.9-30.2 60-30.2L60-30.2Q60.15-30.2 60.25-29.85L60.25-29.85Q60.8-28.5 60.65-26.38 60.5-24.25 60.02-21.95 59.55-19.65 58.95-17.5 58.35-15.35 58.05-14.05ZM58.6-25L58.6-25Q57.9-22.3 57.1-19.45 56.3-16.6 54.85-14.05L54.85-14.05Q54.75-13.9 54.52-13.53 54.3-13.15 54.15-13.2L54.15-13.2Q54.05-13.2 54.05-13.6 54.05-14 54.1-14.25L54.1-14.25Q54.15-14.85 54.3-15.73 54.45-16.6 54.67-17.53 54.9-18.45 55.12-19.33 55.35-20.2 55.55-20.8L55.55-20.8Q55.65-21.1 55.87-21.98 56.1-22.85 56.35-24.05 56.6-25.25 56.85-26.68 57.1-28.1 57.27-29.5 57.45-30.9 57.5-32.15 57.55-33.4 57.4-34.3L57.4-34.3Q57.3-34.75 57.45-34.75L57.45-34.75Q57.55-34.75 57.65-34.65 57.75-34.55 57.8-34.45L57.8-34.45Q58.4-33.6 58.67-32.4 58.95-31.2 59.02-29.9 59.1-28.6 58.97-27.3 58.85-26 58.6-25ZM54.1-3.4L54.1-3.4Q54.25-2.4 54.42-1.6 54.6-0.8 55.05-0.05L55.05-0.05Q55.1 0 55.12 0.13 55.15 0.25 55.05 0.25L55.05 0.25Q54.8 0.25 54.55 0L54.55 0Q54-0.65 53.65-1.25 53.3-1.85 53-3.35L53-3.35Q52.9-3.95 52.85-4.8 52.8-5.65 52.85-6.45 52.9-7.25 53.02-7.78 53.15-8.3 53.35-8.3L53.35-8.3Q53.4-8.3 53.47-8.03 53.55-7.75 53.62-7.43 53.7-7.1 53.72-6.78 53.75-6.45 53.75-6.35L53.75-6.35Q53.9-4.8 54.1-3.4Z" opacity="1" transform="matrix(1,0,0,1,0,0)" fill="black" class="wordmark-text-0" id="SvgjsPath1057"></path></svg></g></svg></g></svg></g></svg></g></svg></g></svg></g></svg></g></svg></g><defs><mask></mask></defs></svg><rect width="395.52" height="247.2" fill="black" stroke="none" visibility="hidden"></rect></g></mask><linearGradient x1="0" x2="1" y1="0.5" y2="0.5" id="39a1ee5a-c372-4ab4-9fb9-26c190a84928"><stop stop-color="#ffa62e" offset="0"></stop><stop stop-color="#f71b3d" offset="1"></stop></linearGradient></svg><rect width="395.52" height="247.2" fill="none" stroke="none" visibility="hidden"></rect></g></svg></g></svg>